<?xml version="1.0" encoding="UTF-8" standalone="no"?>
<!DOCTYPE svg PUBLIC "-//W3C//DTD SVG 1.0//EN" "http://www.w3.org/TR/2001/PR-SVG-20010719/DTD/svg10.dtd">
<svg width="33cm" height="25cm" viewBox="-30 63 642 497" xmlns="http://www.w3.org/2000/svg" xmlns:xlink="http://www.w3.org/1999/xlink">
  <g>
    <rect style="fill: #00ff00" x="237" y="152" width="81.9" height="36"/>
    <rect style="fill: none; fill-opacity:0; stroke-width: 2; stroke: #000000" x="237" y="152" width="81.9" height="36"/>
    <text font-size="12.8" style="fill: #000000;text-anchor:middle;font-family:monospace;font-style:normal;font-weight:normal" x="277.95" y="174">kursant</text>
  </g>
  <g>
    <rect style="fill: #00ff00" x="359" y="302" width="105" height="36"/>
    <rect style="fill: none; fill-opacity:0; stroke-width: 2; stroke: #000000" x="359" y="302" width="105" height="36"/>
    <text font-size="12.8" style="fill: #000000;text-anchor:middle;font-family:monospace;font-style:normal;font-weight:normal" x="411.5" y="324">instruktor</text>
  </g>
  <g>
    <rect style="fill: #00ff00" x="344" y="464" width="89.6" height="36"/>
    <rect style="fill: none; fill-opacity:0; stroke-width: 2; stroke: #000000" x="344" y="464" width="89.6" height="36"/>
    <text font-size="12.8" style="fill: #000000;text-anchor:middle;font-family:monospace;font-style:normal;font-weight:normal" x="388.8" y="486">samochód</text>
  </g>
  <g>
    <ellipse style="fill: #ffffff" cx="120.4" cy="120" rx="35.4" ry="18"/>
    <ellipse style="fill: none; fill-opacity:0; stroke-width: 2; stroke: #000000" cx="120.4" cy="120" rx="35.4" ry="18"/>
    <text font-size="12.8" style="fill: #000000;text-anchor:middle;font-family:monospace;font-style:normal;font-weight:normal" x="120.4" y="124">imię</text>
  </g>
  <g>
    <ellipse style="fill: #ffffff" cx="106.8" cy="159" rx="50.8" ry="18"/>
    <ellipse style="fill: none; fill-opacity:0; stroke-width: 2; stroke: #000000" cx="106.8" cy="159" rx="50.8" ry="18"/>
    <text font-size="12.8" style="fill: #000000;text-anchor:middle;font-family:monospace;font-style:normal;font-weight:normal" x="106.8" y="163">nazwisko</text>
  </g>
  <g>
    <ellipse style="fill: #ffffff" cx="197.5" cy="85" rx="58.5" ry="18"/>
    <ellipse style="fill: none; fill-opacity:0; stroke-width: 2; stroke: #000000" cx="197.5" cy="85" rx="58.5" ry="18"/>
    <text font-size="12.8" style="fill: #000000;text-anchor:middle;font-family:monospace;font-style:normal;font-weight:normal" x="197.5" y="89">nr. dowodu</text>
    <line style="fill: none; fill-opacity:0; stroke-width: 2; stroke: #000000" x1="159" y1="93" x2="236" y2="93"/>
  </g>
  <g>
    <ellipse style="fill: #ffffff" cx="315.8" cy="82" rx="50.8" ry="18"/>
    <ellipse style="fill: none; fill-opacity:0; stroke-width: 2; stroke: #000000" cx="315.8" cy="82" rx="50.8" ry="18"/>
    <text font-size="12.8" style="fill: #000000;text-anchor:middle;font-family:monospace;font-style:normal;font-weight:normal" x="315.8" y="86">data ur.</text>
  </g>
  <g>
    <ellipse style="fill: #ffffff" cx="182.25" cy="193" rx="39.25" ry="18"/>
    <ellipse style="fill: none; fill-opacity:0; stroke-width: 2; stroke: #000000" cx="182.25" cy="193" rx="39.25" ry="18"/>
    <text font-size="12.8" style="fill: #000000;text-anchor:middle;font-family:monospace;font-style:normal;font-weight:normal" x="182.25" y="197">pesel</text>
    <line style="fill: none; fill-opacity:0; stroke-width: 2; stroke: #000000" x1="163" y1="201" x2="201.5" y2="201"/>
  </g>
  <line style="fill: none; fill-opacity:0; stroke-width: 2; stroke: #000000" x1="217.974" y1="184.414" x2="236.035" y2="180.074"/>
  <line style="fill: none; fill-opacity:0; stroke-width: 2; stroke: #000000" x1="151.364" y1="129.827" x2="236.005" y2="156.688"/>
  <line style="fill: none; fill-opacity:0; stroke-width: 2; stroke: #000000" x1="157.788" y1="162.277" x2="236.082" y2="167.309"/>
  <line style="fill: none; fill-opacity:0; stroke-width: 2; stroke: #000000" x1="214.509" y1="102.971" x2="259.998" y2="151.033"/>
  <line style="fill: none; fill-opacity:0; stroke-width: 2; stroke: #000000" x1="307.749" y1="100.718" x2="286.123" y2="150.997"/>
  <g>
    <ellipse style="fill: #ffffff" cx="519.4" cy="265" rx="35.4" ry="18"/>
    <ellipse style="fill: none; fill-opacity:0; stroke-width: 2; stroke: #000000" cx="519.4" cy="265" rx="35.4" ry="18"/>
    <text font-size="12.8" style="fill: #000000;text-anchor:middle;font-family:monospace;font-style:normal;font-weight:normal" x="519.4" y="269">imię</text>
  </g>
  <g>
    <ellipse style="fill: #ffffff" cx="559.8" cy="316" rx="50.8" ry="18"/>
    <ellipse style="fill: none; fill-opacity:0; stroke-width: 2; stroke: #000000" cx="559.8" cy="316" rx="50.8" ry="18"/>
    <text font-size="12.8" style="fill: #000000;text-anchor:middle;font-family:monospace;font-style:normal;font-weight:normal" x="559.8" y="320">nazwisko</text>
  </g>
  <g>
    <ellipse style="fill: #ffffff" cx="523.95" cy="361" rx="46.95" ry="18"/>
    <ellipse style="fill: none; fill-opacity:0; stroke-width: 2; stroke: #000000" cx="523.95" cy="361" rx="46.95" ry="18"/>
    <text font-size="12.8" style="fill: #000000;text-anchor:middle;font-family:monospace;font-style:normal;font-weight:normal" x="523.95" y="365">nr leg.</text>
    <line style="fill: none; fill-opacity:0; stroke-width: 2; stroke: #000000" x1="497" y1="369" x2="550.9" y2="369"/>
  </g>
  <line style="fill: none; fill-opacity:0; stroke-width: 2; stroke: #000000" x1="489.002" y1="348.258" x2="463.607" y2="338.999"/>
  <line style="fill: none; fill-opacity:0; stroke-width: 2; stroke: #000000" x1="508.152" y1="317.393" x2="464.976" y2="318.558"/>
  <line style="fill: none; fill-opacity:0; stroke-width: 2; stroke: #000000" x1="493.518" y1="278.193" x2="448.696" y2="301.04"/>
  <g>
    <rect style="fill: #00ff00" x="54" y="263" width="66.5" height="36"/>
    <rect style="fill: none; fill-opacity:0; stroke-width: 2; stroke: #000000" x="54" y="263" width="66.5" height="36"/>
    <text font-size="12.8" style="fill: #000000;text-anchor:middle;font-family:monospace;font-style:normal;font-weight:normal" x="87.25" y="285">jazda</text>
  </g>
  <g>
    <ellipse style="fill: #ffffff" cx="531.25" cy="523" rx="39.25" ry="18"/>
    <ellipse style="fill: none; fill-opacity:0; stroke-width: 2; stroke: #000000" cx="531.25" cy="523" rx="39.25" ry="18"/>
    <text font-size="12.8" style="fill: #000000;text-anchor:middle;font-family:monospace;font-style:normal;font-weight:normal" x="531.25" y="527">marka</text>
  </g>
  <g>
    <ellipse style="fill: #ffffff" cx="513.8" cy="477" rx="50.8" ry="18"/>
    <ellipse style="fill: none; fill-opacity:0; stroke-width: 2; stroke: #000000" cx="513.8" cy="477" rx="50.8" ry="18"/>
    <text font-size="12.8" style="fill: #000000;text-anchor:middle;font-family:monospace;font-style:normal;font-weight:normal" x="513.8" y="481">nr. rej.</text>
    <line style="fill: none; fill-opacity:0; stroke-width: 2; stroke: #000000" x1="483" y1="485" x2="544.6" y2="485"/>
  </g>
  <g>
    <rect style="fill: #00ff00" x="76" y="340" width="81.9" height="36"/>
    <rect style="fill: none; fill-opacity:0; stroke-width: 2; stroke: #000000" x="76" y="340" width="81.9" height="36"/>
    <text font-size="12.8" style="fill: #000000;text-anchor:middle;font-family:monospace;font-style:normal;font-weight:normal" x="116.95" y="362">egzamin</text>
  </g>
  <line style="fill: none; fill-opacity:0; stroke-width: 2; stroke: #000000" x1="497.168" y1="513.19" x2="434.585" y2="495.178"/>
  <line style="fill: none; fill-opacity:0; stroke-width: 2; stroke: #000000" x1="462.332" y1="479.059" x2="434.592" y2="480.168"/>
  <g>
    <rect style="fill: #00ff00" x="174" y="477" width="112.7" height="36"/>
    <rect style="fill: none; fill-opacity:0; stroke-width: 2; stroke: #000000" x="174" y="477" width="112.7" height="36"/>
    <text font-size="12.8" style="fill: #000000;text-anchor:middle;font-family:monospace;font-style:normal;font-weight:normal" x="230.35" y="499">egzaminator</text>
  </g>
  <g>
    <rect style="fill: #00ff00" x="491" y="143" width="66.5" height="36"/>
    <rect style="fill: none; fill-opacity:0; stroke-width: 2; stroke: #000000" x="491" y="143" width="66.5" height="36"/>
    <text font-size="12.8" style="fill: #000000;text-anchor:middle;font-family:monospace;font-style:normal;font-weight:normal" x="524.25" y="165">grupa</text>
  </g>
  <g>
    <ellipse style="fill: #ffffff" cx="522.95" cy="433" rx="46.95" ry="18"/>
    <ellipse style="fill: none; fill-opacity:0; stroke-width: 2; stroke: #000000" cx="522.95" cy="433" rx="46.95" ry="18"/>
    <text font-size="12.8" style="fill: #000000;text-anchor:middle;font-family:monospace;font-style:normal;font-weight:normal" x="522.95" y="437">nr. ew.</text>
    <line style="fill: none; fill-opacity:0; stroke-width: 2; stroke: #000000" x1="496" y1="441" x2="549.9" y2="441"/>
  </g>
  <line style="fill: none; fill-opacity:0; stroke-width: 2; stroke: #000000" x1="488.021" y1="445.758" x2="434.603" y2="465.27"/>
  <g>
    <polygon style="fill: #ffffff" points="423,244.62 450.7,228 478.4,244.62 450.7,261.24 "/>
    <polygon style="fill: none; fill-opacity:0; stroke-width: 2; stroke: #000000" points="423,244.62 450.7,228 478.4,244.62 450.7,261.24 "/>
    <text font-size="12.8" style="fill: #000000;text-anchor:end;font-family:monospace;font-style:normal;font-weight:normal" x="417" y="238.62"/>
    <text font-size="12.8" style="fill: #000000;text-anchor:start;font-family:monospace;font-style:normal;font-weight:normal" x="484.4" y="238.62"/>
    <text font-size="12.8" style="fill: #000000;text-anchor:middle;font-family:monospace;font-style:normal;font-weight:normal" x="450.7" y="248.62">ma</text>
  </g>
  <g>
    <polyline style="fill: none; fill-opacity:0; stroke-width: 2; stroke: #000000" points="524.25,180.009 524.25,203.5 450.7,203.5 450.7,226.991 "/>
    <line style="fill: none; fill-opacity:0; stroke-width: 2; stroke: #000000" x1="524.25" y1="190.009" x2="529.25" y2="180.009"/>
    <line style="fill: none; fill-opacity:0; stroke-width: 2; stroke: #000000" x1="524.25" y1="190.009" x2="519.25" y2="180.009"/>
  </g>
  <g>
    <polyline style="fill: none; fill-opacity:0; stroke-width: 2; stroke: #000000" points="450.7,262.249 450.7,281.62 411.5,281.62 411.5,300.991 "/>
    <line style="fill: none; fill-opacity:0; stroke-width: 2; stroke: #000000" x1="416.5" y1="295.991" x2="406.5" y2="295.991"/>
    <path style="fill: none; fill-opacity:0; stroke-width: 2; stroke: #000000" d="M 411.5 293.491 C 414,293.491 416.5,294.741 416.5,295.991 C 416.5,297.241 414,298.491 411.5,298.491 C 409,298.491 406.5,297.241 406.5,295.991 C 406.5,294.741 409,293.491 411.5,293.491"/>
  </g>
  <g>
    <ellipse style="fill: #ffffff" cx="91.4" cy="220" rx="35.4" ry="18"/>
    <ellipse style="fill: none; fill-opacity:0; stroke-width: 2; stroke: #000000" cx="91.4" cy="220" rx="35.4" ry="18"/>
    <text font-size="12.8" style="fill: #000000;text-anchor:middle;font-family:monospace;font-style:normal;font-weight:normal" x="91.4" y="224">data</text>
  </g>
  <g>
    <ellipse style="fill: #ffffff" cx="10.7" cy="248" rx="27.7" ry="18"/>
    <ellipse style="fill: none; fill-opacity:0; stroke-width: 2; stroke: #000000" cx="10.7" cy="248" rx="27.7" ry="18"/>
    <text font-size="12.8" style="fill: #000000;text-anchor:middle;font-family:monospace;font-style:normal;font-weight:normal" x="10.7" y="252">id</text>
    <line style="fill: none; fill-opacity:0; stroke-width: 2; stroke: #000000" x1="3" y1="256" x2="18.4" y2="256"/>
  </g>
  <g>
    <ellipse style="fill: #ffffff" cx="17.95" cy="326" rx="46.95" ry="18"/>
    <ellipse style="fill: none; fill-opacity:0; stroke-width: 2; stroke: #000000" cx="17.95" cy="326" rx="46.95" ry="18"/>
    <text font-size="12.8" style="fill: #000000;text-anchor:middle;font-family:monospace;font-style:normal;font-weight:normal" x="17.95" y="330">godzina</text>
  </g>
  <line style="fill: none; fill-opacity:0; stroke-width: 2; stroke: #000000" x1="34.706" y1="258.349" x2="53.0025" y2="266.236"/>
  <line style="fill: none; fill-opacity:0; stroke-width: 2; stroke: #000000" x1="42.6601" y1="309.954" x2="57.9971" y2="299.995"/>
  <line style="fill: none; fill-opacity:0; stroke-width: 2; stroke: #000000" x1="90.1092" y1="238.973" x2="88.5408" y2="262.027"/>
  <g>
    <polygon style="fill: #ffffff" points="182,264.55 221.25,241 260.5,264.55 221.25,288.1 "/>
    <polygon style="fill: none; fill-opacity:0; stroke-width: 2; stroke: #000000" points="182,264.55 221.25,241 260.5,264.55 221.25,288.1 "/>
    <text font-size="12.8" style="fill: #000000;text-anchor:end;font-family:monospace;font-style:normal;font-weight:normal" x="176" y="258.55"/>
    <text font-size="12.8" style="fill: #000000;text-anchor:start;font-family:monospace;font-style:normal;font-weight:normal" x="266.5" y="258.55"/>
    <text font-size="12.8" style="fill: #000000;text-anchor:middle;font-family:monospace;font-style:normal;font-weight:normal" x="221.25" y="268.55">odbył</text>
  </g>
  <g>
    <polyline style="fill: none; fill-opacity:0; stroke-width: 2; stroke: #000000" points="277.95,189.009 277.95,214.502 221.25,214.502 221.25,239.994 "/>
    <line style="fill: none; fill-opacity:0; stroke-width: 2; stroke: #000000" x1="272.95" y1="194.009" x2="282.95" y2="194.009"/>
    <line style="fill: none; fill-opacity:0; stroke-width: 2; stroke: #000000" x1="272.95" y1="199.009" x2="282.95" y2="199.009"/>
  </g>
  <g>
    <polyline style="fill: none; fill-opacity:0; stroke-width: 2; stroke: #000000" points="180.996,264.55 151.252,264.55 151.252,281 121.508,281 "/>
    <line style="fill: none; fill-opacity:0; stroke-width: 2; stroke: #000000" x1="131.508" y1="281" x2="121.508" y2="276"/>
    <line style="fill: none; fill-opacity:0; stroke-width: 2; stroke: #000000" x1="131.508" y1="281" x2="121.508" y2="286"/>
  </g>
  <g>
    <ellipse style="fill: #ffffff" cx="1.7" cy="395" rx="27.7" ry="18"/>
    <ellipse style="fill: none; fill-opacity:0; stroke-width: 2; stroke: #000000" cx="1.7" cy="395" rx="27.7" ry="18"/>
    <text font-size="12.8" style="fill: #000000;text-anchor:middle;font-family:monospace;font-style:normal;font-weight:normal" x="1.7" y="399">id</text>
    <line style="fill: none; fill-opacity:0; stroke-width: 2; stroke: #000000" x1="-6" y1="403" x2="9.4" y2="403"/>
  </g>
  <g>
    <ellipse style="fill: #ffffff" cx="90.4" cy="410" rx="35.4" ry="18"/>
    <ellipse style="fill: none; fill-opacity:0; stroke-width: 2; stroke: #000000" cx="90.4" cy="410" rx="35.4" ry="18"/>
    <text font-size="12.8" style="fill: #000000;text-anchor:middle;font-family:monospace;font-style:normal;font-weight:normal" x="90.4" y="414">data</text>
  </g>
  <line style="fill: none; fill-opacity:0; stroke-width: 2; stroke: #000000" x1="75.0115" y1="371.464" x2="27.4878" y2="386.721"/>
  <line style="fill: none; fill-opacity:0; stroke-width: 2; stroke: #000000" x1="107.247" y1="377.005" x2="99.7502" y2="391.687"/>
  <g>
    <polygon style="fill: #ffffff" points="148,432.62 175.7,416 203.4,432.62 175.7,449.24 "/>
    <polygon style="fill: none; fill-opacity:0; stroke-width: 2; stroke: #000000" points="148,432.62 175.7,416 203.4,432.62 175.7,449.24 "/>
    <text font-size="12.8" style="fill: #000000;text-anchor:end;font-family:monospace;font-style:normal;font-weight:normal" x="142" y="426.62"/>
    <text font-size="12.8" style="fill: #000000;text-anchor:start;font-family:monospace;font-style:normal;font-weight:normal" x="209.4" y="426.62"/>
    <text font-size="12.8" style="fill: #000000;text-anchor:middle;font-family:monospace;font-style:normal;font-weight:normal" x="175.7" y="436.62">ma</text>
  </g>
  <g>
    <polyline style="fill: none; fill-opacity:0; stroke-width: 2; stroke: #000000" points="157.9,376 157.9,395.496 175.7,395.496 175.7,414.991 "/>
    <line style="fill: none; fill-opacity:0; stroke-width: 2; stroke: #000000" x1="157.9" y1="386" x2="162.9" y2="376"/>
    <line style="fill: none; fill-opacity:0; stroke-width: 2; stroke: #000000" x1="157.9" y1="386" x2="152.9" y2="376"/>
  </g>
  <g>
    <polyline style="fill: none; fill-opacity:0; stroke-width: 2; stroke: #000000" points="230.35,475.991 230.35,440.93 189.55,440.93 "/>
    <line style="fill: none; fill-opacity:0; stroke-width: 2; stroke: #000000" x1="235.35" y1="470.991" x2="225.35" y2="470.991"/>
    <line style="fill: none; fill-opacity:0; stroke-width: 2; stroke: #000000" x1="235.35" y1="465.991" x2="225.35" y2="465.991"/>
  </g>
  <g>
    <ellipse style="fill: #ffffff" cx="275.7" cy="430.75" rx="27.7" ry="18"/>
    <ellipse style="fill: none; fill-opacity:0; stroke-width: 2; stroke: #000000" cx="275.7" cy="430.75" rx="27.7" ry="18"/>
    <text font-size="12.8" style="fill: #000000;text-anchor:middle;font-family:monospace;font-style:normal;font-weight:normal" x="275.7" y="434.75">id</text>
    <line style="fill: none; fill-opacity:0; stroke-width: 2; stroke: #000000" x1="268" y1="438.75" x2="283.4" y2="438.75"/>
  </g>
  <g>
    <ellipse style="fill: #ffffff" cx="275.8" cy="540.75" rx="50.8" ry="18"/>
    <ellipse style="fill: none; fill-opacity:0; stroke-width: 2; stroke: #000000" cx="275.8" cy="540.75" rx="50.8" ry="18"/>
    <text font-size="12.8" style="fill: #000000;text-anchor:middle;font-family:monospace;font-style:normal;font-weight:normal" x="275.8" y="544.75">nazwisko</text>
  </g>
  <g>
    <ellipse style="fill: #ffffff" cx="165.4" cy="537.75" rx="35.4" ry="18"/>
    <ellipse style="fill: none; fill-opacity:0; stroke-width: 2; stroke: #000000" cx="165.4" cy="537.75" rx="35.4" ry="18"/>
    <text font-size="12.8" style="fill: #000000;text-anchor:middle;font-family:monospace;font-style:normal;font-weight:normal" x="165.4" y="541.75">imię</text>
  </g>
  <line style="fill: none; fill-opacity:0; stroke-width: 2; stroke: #000000" x1="258.312" y1="523.147" x2="249.225" y2="513.999"/>
  <line style="fill: none; fill-opacity:0; stroke-width: 2; stroke: #000000" x1="187.869" y1="522.961" x2="201.475" y2="514.006"/>
  <line style="fill: none; fill-opacity:0; stroke-width: 2; stroke: #000000" x1="263.61" y1="447.879" x2="243.747" y2="476.02"/>
  <g>
    <polygon style="fill: #ffffff" points="252,340.3 291.25,316.75 330.5,340.3 291.25,363.85 "/>
    <polygon style="fill: none; fill-opacity:0; stroke-width: 2; stroke: #000000" points="252,340.3 291.25,316.75 330.5,340.3 291.25,363.85 "/>
    <text font-size="12.8" style="fill: #000000;text-anchor:end;font-family:monospace;font-style:normal;font-weight:normal" x="246" y="334.3"/>
    <text font-size="12.8" style="fill: #000000;text-anchor:start;font-family:monospace;font-style:normal;font-weight:normal" x="336.5" y="334.3"/>
    <text font-size="12.8" style="fill: #000000;text-anchor:middle;font-family:monospace;font-style:normal;font-weight:normal" x="291.25" y="344.3">odbył</text>
  </g>
  <g>
    <polyline style="fill: none; fill-opacity:0; stroke-width: 2; stroke: #000000" points="318.9,188 318.9,251.872 291.25,251.872 291.25,315.744 "/>
    <line style="fill: none; fill-opacity:0; stroke-width: 2; stroke: #000000" x1="318.9" y1="198" x2="323.9" y2="188"/>
    <line style="fill: none; fill-opacity:0; stroke-width: 2; stroke: #000000" x1="318.9" y1="198" x2="313.9" y2="188"/>
  </g>
  <g>
    <polyline style="fill: none; fill-opacity:0; stroke-width: 2; stroke: #000000" points="158.905,358 204.95,358 204.95,340.3 250.996,340.3 "/>
    <line style="fill: none; fill-opacity:0; stroke-width: 2; stroke: #000000" x1="168.905" y1="358" x2="158.905" y2="353"/>
    <line style="fill: none; fill-opacity:0; stroke-width: 2; stroke: #000000" x1="168.905" y1="358" x2="158.905" y2="363"/>
  </g>
  <g>
    <polygon style="fill: #ffffff" points="405,396.37 432.7,379.75 460.4,396.37 432.7,412.99 "/>
    <polygon style="fill: none; fill-opacity:0; stroke-width: 2; stroke: #000000" points="405,396.37 432.7,379.75 460.4,396.37 432.7,412.99 "/>
    <text font-size="12.8" style="fill: #000000;text-anchor:end;font-family:monospace;font-style:normal;font-weight:normal" x="399" y="390.37"/>
    <text font-size="12.8" style="fill: #000000;text-anchor:start;font-family:monospace;font-style:normal;font-weight:normal" x="466.4" y="390.37"/>
    <text font-size="12.8" style="fill: #000000;text-anchor:middle;font-family:monospace;font-style:normal;font-weight:normal" x="432.7" y="400.37">ma</text>
  </g>
  <g>
    <polyline style="fill: none; fill-opacity:0; stroke-width: 2; stroke: #000000" points="411.5,338 411.5,358.371 432.7,358.371 432.7,378.741 "/>
    <line style="fill: none; fill-opacity:0; stroke-width: 2; stroke: #000000" x1="406.5" y1="343" x2="416.5" y2="343"/>
    <path style="fill: none; fill-opacity:0; stroke-width: 2; stroke: #000000" d="M 411.5 350.5 C 414,350.5 416.5,351.75 416.5,353 C 416.5,354.25 414,355.5 411.5,355.5 C 409,355.5 406.5,354.25 406.5,353 C 406.5,351.75 409,350.5 411.5,350.5"/>
  </g>
  <g>
    <polyline style="fill: none; fill-opacity:0; stroke-width: 2; stroke: #000000" points="388.8,462.991 388.8,438.495 432.7,438.495 432.7,413.999 "/>
    <line style="fill: none; fill-opacity:0; stroke-width: 2; stroke: #000000" x1="393.8" y1="457.991" x2="383.8" y2="457.991"/>
    <path style="fill: none; fill-opacity:0; stroke-width: 2; stroke: #000000" d="M 388.8 450.491 C 386.3,450.491 383.8,449.241 383.8,447.991 C 383.8,446.741 386.3,445.491 388.8,445.491 C 391.3,445.491 393.8,446.741 393.8,447.991 C 393.8,449.241 391.3,450.491 388.8,450.491"/>
  </g>
  <g>
    <polygon style="fill: #ffffff" points="367,114.61 410.1,88.75 453.2,114.61 410.1,140.47 "/>
    <polygon style="fill: none; fill-opacity:0; stroke-width: 2; stroke: #000000" points="367,114.61 410.1,88.75 453.2,114.61 410.1,140.47 "/>
    <text font-size="12.8" style="fill: #000000;text-anchor:end;font-family:monospace;font-style:normal;font-weight:normal" x="361" y="108.61"/>
    <text font-size="12.8" style="fill: #000000;text-anchor:start;font-family:monospace;font-style:normal;font-weight:normal" x="459.2" y="108.61"/>
    <text font-size="12.8" style="fill: #000000;text-anchor:middle;font-family:monospace;font-style:normal;font-weight:normal" x="410.1" y="118.61">należy</text>
  </g>
  <g>
    <polyline style="fill: none; fill-opacity:0; stroke-width: 2; stroke: #000000" points="491,161 450.55,161 450.55,140.47 410.1,140.47 "/>
    <line style="fill: none; fill-opacity:0; stroke-width: 2; stroke: #000000" x1="481" y1="161" x2="491" y2="166"/>
    <line style="fill: none; fill-opacity:0; stroke-width: 2; stroke: #000000" x1="481" y1="161" x2="491" y2="156"/>
    <path style="fill: none; fill-opacity:0; stroke-width: 2; stroke: #000000" d="M 478.5 161 C 478.5,163.5 477.25,166 476,166 C 474.75,166 473.5,163.5 473.5,161 C 473.5,158.5 474.75,156 476,156 C 477.25,156 478.5,158.5 478.5,161"/>
  </g>
  <g>
    <polyline style="fill: none; fill-opacity:0; stroke-width: 2; stroke: #000000" points="319.905,170 342.955,170 342.955,114.61 366.006,114.61 "/>
    <line style="fill: none; fill-opacity:0; stroke-width: 2; stroke: #000000" x1="329.905" y1="170" x2="319.905" y2="165"/>
    <line style="fill: none; fill-opacity:0; stroke-width: 2; stroke: #000000" x1="329.905" y1="170" x2="319.905" y2="175"/>
  </g>
  <g>
    <ellipse style="fill: #ffffff" cx="416.05" cy="540.75" rx="70.05" ry="18"/>
    <ellipse style="fill: none; fill-opacity:0; stroke-width: 2; stroke: #000000" cx="416.05" cy="540.75" rx="70.05" ry="18"/>
    <text font-size="12.8" style="fill: #000000;text-anchor:middle;font-family:monospace;font-style:normal;font-weight:normal" x="416.05" y="544.75">rodz. silnika</text>
  </g>
  <line style="fill: none; fill-opacity:0; stroke-width: 2; stroke: #000000" x1="407.341" y1="521.975" x2="397.615" y2="501.005"/>
  <g>
    <ellipse style="fill: #ffffff" cx="578.7" cy="209.25" rx="27.7" ry="18"/>
    <ellipse style="fill: none; fill-opacity:0; stroke-width: 2; stroke: #000000" cx="578.7" cy="209.25" rx="27.7" ry="18"/>
    <text font-size="12.8" style="fill: #000000;text-anchor:middle;font-family:monospace;font-style:normal;font-weight:normal" x="578.7" y="213.25">Id</text>
    <line style="fill: none; fill-opacity:0; stroke-width: 2; stroke: #000000" x1="571" y1="217.25" x2="586.4" y2="217.25"/>
  </g>
  <line style="fill: none; fill-opacity:0; stroke-width: 2; stroke: #000000" x1="561.571" y1="194.072" x2="545.692" y2="180.001"/>
  <g>
    <ellipse style="fill: #ffffff" cx="556.8" cy="89.25" rx="50.8" ry="18"/>
    <ellipse style="fill: none; fill-opacity:0; stroke-width: 2; stroke: #000000" cx="556.8" cy="89.25" rx="50.8" ry="18"/>
    <text font-size="12.8" style="fill: #000000;text-anchor:middle;font-family:monospace;font-style:normal;font-weight:normal" x="556.8" y="93.25">wielkość</text>
  </g>
  <line style="fill: none; fill-opacity:0; stroke-width: 2; stroke: #000000" x1="548.325" y1="107.932" x2="532.868" y2="142.003"/>
</svg>
