<?xml version="1.0" encoding="UTF-8" standalone="no"?>
<!DOCTYPE svg PUBLIC "-//W3C//DTD SVG 1.0//EN" "http://www.w3.org/TR/2001/PR-SVG-20010719/DTD/svg10.dtd">
<svg width="44cm" height="32cm" viewBox="329 -109 866 624" xmlns="http://www.w3.org/2000/svg" xmlns:xlink="http://www.w3.org/1999/xlink">
  <g>
    <rect style="fill: #ffffff" x="414.598" y="325.868" width="81.9" height="36"/>
    <rect style="fill: none; fill-opacity:0; stroke-width: 2; stroke: #000000" x="414.598" y="325.868" width="81.9" height="36"/>
    <text font-size="12.8" style="fill: #000000;text-anchor:middle;font-family:monospace;font-style:normal;font-weight:normal" x="455.548" y="347.868">Chirurg</text>
  </g>
  <g>
    <rect style="fill: #ffffff" x="945.796" y="339.864" width="120.4" height="36"/>
    <rect style="fill: none; fill-opacity:0; stroke-width: 2; stroke: #000000" x="945.796" y="339.864" width="120.4" height="36"/>
    <text font-size="12.8" style="fill: #000000;text-anchor:middle;font-family:monospace;font-style:normal;font-weight:normal" x="1006" y="361.864">pielęgniarka</text>
  </g>
  <g>
    <rect style="fill: #ffffff" x="937.36" y="106.997" width="81.9" height="36"/>
    <rect style="fill: none; fill-opacity:0; stroke-width: 2; stroke: #000000" x="937.36" y="106.997" width="81.9" height="36"/>
    <text font-size="12.8" style="fill: #000000;text-anchor:middle;font-family:monospace;font-style:normal;font-weight:normal" x="978.31" y="128.997">pacjent</text>
  </g>
  <g>
    <ellipse style="fill: #ffffff" cx="366.168" cy="316.68" rx="35.4" ry="18"/>
    <ellipse style="fill: none; fill-opacity:0; stroke-width: 2; stroke: #000000" cx="366.168" cy="316.68" rx="35.4" ry="18"/>
    <text font-size="12.8" style="fill: #000000;text-anchor:middle;font-family:monospace;font-style:normal;font-weight:normal" x="366.168" y="320.68">Imię</text>
  </g>
  <g>
    <ellipse style="fill: #ffffff" cx="456.02" cy="287.058" rx="50.8" ry="18"/>
    <ellipse style="fill: none; fill-opacity:0; stroke-width: 2; stroke: #000000" cx="456.02" cy="287.058" rx="50.8" ry="18"/>
    <text font-size="12.8" style="fill: #000000;text-anchor:middle;font-family:monospace;font-style:normal;font-weight:normal" x="456.02" y="291.058">Nazwisko</text>
  </g>
  <g>
    <ellipse style="fill: #ffffff" cx="373.638" cy="379.444" rx="27.7" ry="18"/>
    <ellipse style="fill: none; fill-opacity:0; stroke-width: 2; stroke: #000000" cx="373.638" cy="379.444" rx="27.7" ry="18"/>
    <text font-size="12.8" style="fill: #000000;text-anchor:middle;font-family:monospace;font-style:normal;font-weight:normal" x="373.638" y="383.444">Id</text>
    <line style="fill: none; fill-opacity:0; stroke-width: 2; stroke: #000000" x1="365.938" y1="387.444" x2="381.338" y2="387.444"/>
  </g>
  <line style="fill: none; fill-opacity:0; stroke-width: 2; stroke: #000000" x1="397.575" y1="369.047" x2="413.613" y2="362.082"/>
  <line style="fill: none; fill-opacity:0; stroke-width: 2; stroke: #000000" x1="397.509" y1="326.213" x2="413.597" y2="331.107"/>
  <line style="fill: none; fill-opacity:0; stroke-width: 2; stroke: #000000" x1="455.862" y1="306.046" x2="455.706" y2="324.88"/>
  <g>
    <ellipse style="fill: #ffffff" cx="1044.16" cy="450.438" rx="35.4" ry="18"/>
    <ellipse style="fill: none; fill-opacity:0; stroke-width: 2; stroke: #000000" cx="1044.16" cy="450.438" rx="35.4" ry="18"/>
    <text font-size="12.8" style="fill: #000000;text-anchor:middle;font-family:monospace;font-style:normal;font-weight:normal" x="1044.16" y="454.438">Imię</text>
  </g>
  <g>
    <ellipse style="fill: #ffffff" cx="1143.59" cy="406.004" rx="50.8" ry="18"/>
    <ellipse style="fill: none; fill-opacity:0; stroke-width: 2; stroke: #000000" cx="1143.59" cy="406.004" rx="50.8" ry="18"/>
    <text font-size="12.8" style="fill: #000000;text-anchor:middle;font-family:monospace;font-style:normal;font-weight:normal" x="1143.59" y="410.004">Nazwisko</text>
  </g>
  <g>
    <ellipse style="fill: #ffffff" cx="1144.46" cy="350.302" rx="27.7" ry="18"/>
    <ellipse style="fill: none; fill-opacity:0; stroke-width: 2; stroke: #000000" cx="1144.46" cy="350.302" rx="27.7" ry="18"/>
    <text font-size="12.8" style="fill: #000000;text-anchor:middle;font-family:monospace;font-style:normal;font-weight:normal" x="1144.46" y="354.302">Id</text>
    <line style="fill: none; fill-opacity:0; stroke-width: 2; stroke: #000000" x1="1136.76" y1="358.302" x2="1152.16" y2="358.302"/>
  </g>
  <line style="fill: none; fill-opacity:0; stroke-width: 2; stroke: #000000" x1="1036.52" y1="431.894" x2="1013.83" y2="376.86"/>
  <line style="fill: none; fill-opacity:0; stroke-width: 2; stroke: #000000" x1="1106.49" y1="393.026" x2="1060.31" y2="376.868"/>
  <line style="fill: none; fill-opacity:0; stroke-width: 2; stroke: #000000" x1="1115.85" y1="351.864" x2="1067.19" y2="354.522"/>
  <g>
    <ellipse style="fill: #ffffff" cx="1077.18" cy="80.1356" rx="35.4" ry="18"/>
    <ellipse style="fill: none; fill-opacity:0; stroke-width: 2; stroke: #000000" cx="1077.18" cy="80.1356" rx="35.4" ry="18"/>
    <text font-size="12.8" style="fill: #000000;text-anchor:middle;font-family:monospace;font-style:normal;font-weight:normal" x="1077.18" y="84.1356">Imię</text>
  </g>
  <g>
    <ellipse style="fill: #ffffff" cx="1083.12" cy="194.543" rx="50.8" ry="18"/>
    <ellipse style="fill: none; fill-opacity:0; stroke-width: 2; stroke: #000000" cx="1083.12" cy="194.543" rx="50.8" ry="18"/>
    <text font-size="12.8" style="fill: #000000;text-anchor:middle;font-family:monospace;font-style:normal;font-weight:normal" x="1083.12" y="198.543">Nazwisko</text>
  </g>
  <g>
    <ellipse style="fill: #ffffff" cx="987.366" cy="58.6766" rx="50.8" ry="18"/>
    <ellipse style="fill: none; fill-opacity:0; stroke-width: 2; stroke: #000000" cx="987.366" cy="58.6766" rx="50.8" ry="18"/>
    <text font-size="12.8" style="fill: #000000;text-anchor:middle;font-family:monospace;font-style:normal;font-weight:normal" x="987.366" y="62.6766">data ur.</text>
  </g>
  <g>
    <ellipse style="fill: #ffffff" cx="1107.25" cy="134.596" rx="39.25" ry="18"/>
    <ellipse style="fill: none; fill-opacity:0; stroke-width: 2; stroke: #000000" cx="1107.25" cy="134.596" rx="39.25" ry="18"/>
    <text font-size="12.8" style="fill: #000000;text-anchor:middle;font-family:monospace;font-style:normal;font-weight:normal" x="1107.25" y="138.596">PESEL</text>
    <line style="fill: none; fill-opacity:0; stroke-width: 2; stroke: #000000" x1="1088" y1="142.596" x2="1126.5" y2="142.596"/>
  </g>
  <line style="fill: none; fill-opacity:0; stroke-width: 2; stroke: #000000" x1="984.779" y1="77.6208" x2="980.903" y2="106.005"/>
  <line style="fill: none; fill-opacity:0; stroke-width: 2; stroke: #000000" x1="1067.51" y1="131.637" x2="1020.26" y2="128.12"/>
  <line style="fill: none; fill-opacity:0; stroke-width: 2; stroke: #000000" x1="1049.91" y1="92.512" x2="1020.12" y2="106.028"/>
  <line style="fill: none; fill-opacity:0; stroke-width: 2; stroke: #000000" x1="1058.45" y1="178.176" x2="1006.56" y2="143.742"/>
  <g>
    <rect style="fill: #ffffff" x="629.952" y="150.079" width="89.6" height="36"/>
    <rect style="fill: none; fill-opacity:0; stroke-width: 2; stroke: #000000" x="629.952" y="150.079" width="89.6" height="36"/>
    <text font-size="12.8" style="fill: #000000;text-anchor:middle;font-family:monospace;font-style:normal;font-weight:normal" x="674.752" y="172.079">Operacja</text>
  </g>
  <g>
    <rect style="fill: #ffffff" x="936.766" y="-50.8968" width="81.9" height="36"/>
    <rect style="fill: none; fill-opacity:0; stroke-width: 2; stroke: #000000" x="936.766" y="-50.8968" width="81.9" height="36"/>
    <text font-size="12.8" style="fill: #000000;text-anchor:middle;font-family:monospace;font-style:normal;font-weight:normal" x="977.716" y="-28.8968">Budynek</text>
  </g>
  <g>
    <rect style="fill: #ffffff" x="675.142" y="477.112" width="105" height="36"/>
    <rect style="fill: none; fill-opacity:0; stroke-width: 2; stroke: #000000" x="675.142" y="477.112" width="105" height="36"/>
    <text font-size="12.8" style="fill: #000000;text-anchor:middle;font-family:monospace;font-style:normal;font-weight:normal" x="727.642" y="499.112">Stanowisko</text>
  </g>
  <g>
    <ellipse style="fill: #ffffff" cx="715.862" cy="423.758" rx="43.1" ry="18"/>
    <ellipse style="fill: none; fill-opacity:0; stroke-width: 2; stroke: #000000" cx="715.862" cy="423.758" rx="43.1" ry="18"/>
    <text font-size="12.8" style="fill: #000000;text-anchor:middle;font-family:monospace;font-style:normal;font-weight:normal" x="715.862" y="427.758">pensja</text>
    <line style="fill: none; fill-opacity:0; stroke-width: 2; stroke: #000000" x1="692.762" y1="431.758" x2="738.962" y2="431.758"/>
  </g>
  <line style="fill: none; fill-opacity:0; stroke-width: 2; stroke: #000000" x1="718.899" y1="442.154" x2="724.506" y2="476.115"/>
  <g>
    <polygon style="fill: #ffffff" points="569.302,431.892 597.002,415.272 624.702,431.892 597.002,448.512 "/>
    <polygon style="fill: none; fill-opacity:0; stroke-width: 2; stroke: #000000" points="569.302,431.892 597.002,415.272 624.702,431.892 597.002,448.512 "/>
    <text font-size="12.8" style="fill: #000000;text-anchor:end;font-family:monospace;font-style:normal;font-weight:normal" x="563.302" y="425.892"/>
    <text font-size="12.8" style="fill: #000000;text-anchor:start;font-family:monospace;font-style:normal;font-weight:normal" x="630.702" y="425.892"/>
    <text font-size="12.8" style="fill: #000000;text-anchor:middle;font-family:monospace;font-style:normal;font-weight:normal" x="597.002" y="435.892">ma</text>
  </g>
  <g>
    <polyline style="fill: none; fill-opacity:0; stroke-width: 2; stroke: #000000" points="455.548,362.877 455.548,388.57 597.002,388.57 597.002,414.263 "/>
    <line style="fill: none; fill-opacity:0; stroke-width: 2; stroke: #000000" x1="455.548" y1="372.877" x2="460.548" y2="362.877"/>
    <line style="fill: none; fill-opacity:0; stroke-width: 2; stroke: #000000" x1="455.548" y1="372.877" x2="450.548" y2="362.877"/>
  </g>
  <g>
    <polyline style="fill: none; fill-opacity:0; stroke-width: 2; stroke: #000000" points="625.687,431.892 649.911,431.892 649.911,495.112 674.135,495.112 "/>
    <line style="fill: none; fill-opacity:0; stroke-width: 2; stroke: #000000" x1="664.135" y1="500.112" x2="664.135" y2="490.112"/>
  </g>
  <g>
    <polygon style="fill: #ffffff" points="777.278,406.374 804.978,389.754 832.678,406.374 804.978,422.994 "/>
    <polygon style="fill: none; fill-opacity:0; stroke-width: 2; stroke: #000000" points="777.278,406.374 804.978,389.754 832.678,406.374 804.978,422.994 "/>
    <text font-size="12.8" style="fill: #000000;text-anchor:end;font-family:monospace;font-style:normal;font-weight:normal" x="771.278" y="400.374"/>
    <text font-size="12.8" style="fill: #000000;text-anchor:start;font-family:monospace;font-style:normal;font-weight:normal" x="838.678" y="400.374"/>
    <text font-size="12.8" style="fill: #000000;text-anchor:middle;font-family:monospace;font-style:normal;font-weight:normal" x="804.978" y="410.374">ma</text>
  </g>
  <g>
    <polyline style="fill: none; fill-opacity:0; stroke-width: 2; stroke: #000000" points="780.142,477.112 780.142,445.898 818.828,445.898 818.828,414.684 "/>
    <line style="fill: none; fill-opacity:0; stroke-width: 2; stroke: #000000" x1="775.142" y1="467.112" x2="785.142" y2="467.112"/>
  </g>
  <g>
    <ellipse style="fill: #ffffff" cx="1111.47" cy="-41.2212" rx="70.05" ry="18"/>
    <ellipse style="fill: none; fill-opacity:0; stroke-width: 2; stroke: #000000" cx="1111.47" cy="-41.2212" rx="70.05" ry="18"/>
    <text font-size="12.8" style="fill: #000000;text-anchor:middle;font-family:monospace;font-style:normal;font-weight:normal" x="1111.47" y="-37.2212">numer budynku</text>
    <line style="fill: none; fill-opacity:0; stroke-width: 2; stroke: #000000" x1="1061.42" y1="-33.2212" x2="1161.52" y2="-33.2212"/>
  </g>
  <line style="fill: none; fill-opacity:0; stroke-width: 2; stroke: #000000" x1="1042.44" y1="-36.9249" x2="1019.66" y2="-35.5073"/>
  <g>
    <ellipse style="fill: #ffffff" cx="499.65" cy="185.917" rx="62.35" ry="18"/>
    <ellipse style="fill: none; fill-opacity:0; stroke-width: 2; stroke: #000000" cx="499.65" cy="185.917" rx="62.35" ry="18"/>
    <text font-size="12.8" style="fill: #000000;text-anchor:middle;font-family:monospace;font-style:normal;font-weight:normal" x="499.65" y="189.917">Id chirurga</text>
    <line style="fill: none; fill-opacity:0; stroke-width: 2; stroke: #000000" x1="457.3" y1="193.917" x2="542" y2="193.917"/>
  </g>
  <line style="fill: none; fill-opacity:0; stroke-width: 2; stroke: #000000" x1="559.435" y1="179.827" x2="628.957" y2="172.745"/>
  <g>
    <polygon style="fill: #ffffff" points="563.356,269.544 625.706,232.134 688.056,269.544 625.706,306.954 "/>
    <polygon style="fill: none; fill-opacity:0; stroke-width: 2; stroke: #000000" points="563.356,269.544 625.706,232.134 688.056,269.544 625.706,306.954 "/>
    <text font-size="12.8" style="fill: #000000;text-anchor:end;font-family:monospace;font-style:normal;font-weight:normal" x="557.356" y="263.544"/>
    <text font-size="12.8" style="fill: #000000;text-anchor:start;font-family:monospace;font-style:normal;font-weight:normal" x="694.056" y="263.544"/>
    <text font-size="12.8" style="fill: #000000;text-anchor:middle;font-family:monospace;font-style:normal;font-weight:normal" x="625.706" y="273.544">uczestniczy</text>
  </g>
  <g>
    <polyline style="fill: none; fill-opacity:0; stroke-width: 2; stroke: #000000" points="497.503,343.868 529.935,343.868 529.935,269.544 562.367,269.544 "/>
    <line style="fill: none; fill-opacity:0; stroke-width: 2; stroke: #000000" x1="507.503" y1="338.868" x2="507.503" y2="348.868"/>
  </g>
  <g>
    <polyline style="fill: none; fill-opacity:0; stroke-width: 2; stroke: #000000" points="674.752,187.088 674.752,209.107 625.706,209.107 625.706,231.125 "/>
    <line style="fill: none; fill-opacity:0; stroke-width: 2; stroke: #000000" x1="679.752" y1="197.088" x2="669.752" y2="197.088"/>
  </g>
  <g>
    <polyline style="fill: none; fill-opacity:0; stroke-width: 2; stroke: #000000" points="944.789,357.864 791.128,357.864 791.128,398.064 "/>
    <line style="fill: none; fill-opacity:0; stroke-width: 2; stroke: #000000" x1="934.789" y1="357.864" x2="944.789" y2="362.864"/>
    <line style="fill: none; fill-opacity:0; stroke-width: 2; stroke: #000000" x1="934.789" y1="357.864" x2="944.789" y2="352.864"/>
  </g>
  <g>
    <polygon style="fill: #ffffff" points="843.874,244.026 906.224,206.616 968.574,244.026 906.224,281.436 "/>
    <polygon style="fill: none; fill-opacity:0; stroke-width: 2; stroke: #000000" points="843.874,244.026 906.224,206.616 968.574,244.026 906.224,281.436 "/>
    <text font-size="12.8" style="fill: #000000;text-anchor:end;font-family:monospace;font-style:normal;font-weight:normal" x="837.874" y="238.026"/>
    <text font-size="12.8" style="fill: #000000;text-anchor:start;font-family:monospace;font-style:normal;font-weight:normal" x="974.574" y="238.026"/>
    <text font-size="12.8" style="fill: #000000;text-anchor:middle;font-family:monospace;font-style:normal;font-weight:normal" x="906.224" y="248.026">uczestniczy</text>
  </g>
  <g>
    <polyline style="fill: none; fill-opacity:0; stroke-width: 2; stroke: #000000" points="1006,338.855 1006,310.145 906.224,310.145 906.224,281.436 "/>
    <line style="fill: none; fill-opacity:0; stroke-width: 2; stroke: #000000" x1="1006" y1="328.855" x2="1001" y2="338.855"/>
    <line style="fill: none; fill-opacity:0; stroke-width: 2; stroke: #000000" x1="1006" y1="328.855" x2="1011" y2="338.855"/>
    <line style="fill: none; fill-opacity:0; stroke-width: 2; stroke: #000000" x1="1001" y1="328.855" x2="1011" y2="328.855"/>
  </g>
  <g>
    <polyline style="fill: none; fill-opacity:0; stroke-width: 2; stroke: #000000" points="720.558,168.079 813.391,168.079 813.391,206.616 906.224,206.616 "/>
    <line style="fill: none; fill-opacity:0; stroke-width: 2; stroke: #000000" x1="730.558" y1="163.079" x2="730.558" y2="173.079"/>
  </g>
  <g>
    <ellipse style="fill: #ffffff" cx="980.774" cy="-89.9786" rx="39.25" ry="18"/>
    <ellipse style="fill: none; fill-opacity:0; stroke-width: 2; stroke: #000000" cx="980.774" cy="-89.9786" rx="39.25" ry="18"/>
    <text font-size="12.8" style="fill: #000000;text-anchor:middle;font-family:monospace;font-style:normal;font-weight:normal" x="980.774" y="-85.9786">Ulica</text>
  </g>
  <g>
    <ellipse style="fill: #ffffff" cx="491.882" cy="142.41" rx="77.75" ry="18"/>
    <ellipse style="fill: none; fill-opacity:0; stroke-width: 2; stroke: #000000" cx="491.882" cy="142.41" rx="77.75" ry="18"/>
    <text font-size="12.8" style="fill: #000000;text-anchor:middle;font-family:monospace;font-style:normal;font-weight:normal" x="491.882" y="146.41">Id pielegniarki</text>
    <line style="fill: none; fill-opacity:0; stroke-width: 2; stroke-dasharray: 6; stroke: #000000" x1="434.132" y1="150.41" x2="549.632" y2="150.41"/>
  </g>
  <line style="fill: none; fill-opacity:0; stroke-width: 2; stroke: #000000" x1="559.353" y1="151.881" x2="628.99" y2="161.656"/>
  <line style="fill: none; fill-opacity:0; stroke-width: 2; stroke: #000000" x1="979.757" y1="-70.9978" x2="978.733" y2="-51.8776"/>
  <g>
    <ellipse style="fill: #ffffff" cx="534.772" cy="102.132" rx="120.1" ry="18"/>
    <ellipse style="fill: none; fill-opacity:0; stroke-width: 2; stroke: #000000" cx="534.772" cy="102.132" rx="120.1" ry="18"/>
    <text font-size="12.8" style="fill: #000000;text-anchor:middle;font-family:monospace;font-style:normal;font-weight:normal" x="534.772" y="106.132">data i godzina rozpoczęcia</text>
  </g>
  <line style="fill: none; fill-opacity:0; stroke-width: 2; stroke: #000000" x1="572.023" y1="119.682" x2="634.409" y2="149.073"/>
  <g>
    <polygon style="fill: #ffffff" points="770.278,87.0224 797.978,70.4024 825.678,87.0224 797.978,103.642 "/>
    <polygon style="fill: none; fill-opacity:0; stroke-width: 2; stroke: #000000" points="770.278,87.0224 797.978,70.4024 825.678,87.0224 797.978,103.642 "/>
    <text font-size="12.8" style="fill: #000000;text-anchor:end;font-family:monospace;font-style:normal;font-weight:normal" x="764.278" y="81.0224"/>
    <text font-size="12.8" style="fill: #000000;text-anchor:start;font-family:monospace;font-style:normal;font-weight:normal" x="831.678" y="81.0224"/>
    <text font-size="12.8" style="fill: #000000;text-anchor:middle;font-family:monospace;font-style:normal;font-weight:normal" x="797.978" y="91.0224">ma</text>
  </g>
  <g>
    <polyline style="fill: none; fill-opacity:0; stroke-width: 2; stroke: #000000" points="936.355,124.997 881.509,124.997 881.509,87.0224 826.663,87.0224 "/>
    <line style="fill: none; fill-opacity:0; stroke-width: 2; stroke: #000000" x1="926.355" y1="129.997" x2="926.355" y2="119.997"/>
  </g>
  <g>
    <polyline style="fill: none; fill-opacity:0; stroke-width: 2; stroke: #000000" points="719.552,150.079 719.552,127.365 797.978,127.365 797.978,104.651 "/>
    <line style="fill: none; fill-opacity:0; stroke-width: 2; stroke: #000000" x1="714.552" y1="140.079" x2="724.552" y2="140.079"/>
  </g>
  <g>
    <rect style="fill: #ffffff" x="609.734" y="-28.3018" width="58.8" height="36"/>
    <rect style="fill: none; fill-opacity:0; stroke-width: 2; stroke: #000000" x="609.734" y="-28.3018" width="58.8" height="36"/>
    <text font-size="12.8" style="fill: #000000;text-anchor:middle;font-family:monospace;font-style:normal;font-weight:normal" x="639.134" y="-6.3018">Sala</text>
  </g>
  <g>
    <ellipse style="fill: #ffffff" cx="537.764" cy="-21.0046" rx="46.95" ry="18"/>
    <ellipse style="fill: none; fill-opacity:0; stroke-width: 2; stroke: #000000" cx="537.764" cy="-21.0046" rx="46.95" ry="18"/>
    <text font-size="12.8" style="fill: #000000;text-anchor:middle;font-family:monospace;font-style:normal;font-weight:normal" x="537.764" y="-17.0046">nr sali</text>
    <line style="fill: none; fill-opacity:0; stroke-width: 2; stroke: #000000" x1="510.814" y1="-13.0046" x2="564.714" y2="-13.0046"/>
  </g>
  <line style="fill: none; fill-opacity:0; stroke-width: 2; stroke: #000000" x1="584.025" y1="-16.1203" x2="608.73" y2="-13.5119"/>
  <g>
    <polygon style="fill: #ffffff" points="785.738,-79.4666 813.438,-96.0866 841.138,-79.4666 813.438,-62.8466 "/>
    <polygon style="fill: none; fill-opacity:0; stroke-width: 2; stroke: #000000" points="785.738,-79.4666 813.438,-96.0866 841.138,-79.4666 813.438,-62.8466 "/>
    <text font-size="12.8" style="fill: #000000;text-anchor:end;font-family:monospace;font-style:normal;font-weight:normal" x="779.738" y="-85.4666"/>
    <text font-size="12.8" style="fill: #000000;text-anchor:start;font-family:monospace;font-style:normal;font-weight:normal" x="847.138" y="-85.4666"/>
    <text font-size="12.8" style="fill: #000000;text-anchor:middle;font-family:monospace;font-style:normal;font-weight:normal" x="813.438" y="-75.4666">ma</text>
  </g>
  <g>
    <polygon style="fill: #ffffff" points="682.142,50.8002 709.842,34.1802 737.542,50.8002 709.842,67.4202 "/>
    <polygon style="fill: none; fill-opacity:0; stroke-width: 2; stroke: #000000" points="682.142,50.8002 709.842,34.1802 737.542,50.8002 709.842,67.4202 "/>
    <text font-size="12.8" style="fill: #000000;text-anchor:end;font-family:monospace;font-style:normal;font-weight:normal" x="676.142" y="44.8002"/>
    <text font-size="12.8" style="fill: #000000;text-anchor:start;font-family:monospace;font-style:normal;font-weight:normal" x="743.542" y="44.8002"/>
    <text font-size="12.8" style="fill: #000000;text-anchor:middle;font-family:monospace;font-style:normal;font-weight:normal" x="709.842" y="54.8002">ma</text>
  </g>
  <g>
    <polyline style="fill: none; fill-opacity:0; stroke-width: 2; stroke: #000000" points="935.761,-32.8968 888.449,-32.8968 888.449,-79.4666 841.138,-79.4666 "/>
    <line style="fill: none; fill-opacity:0; stroke-width: 2; stroke: #000000" x1="925.761" y1="-27.8968" x2="925.761" y2="-37.8968"/>
  </g>
  <g>
    <polyline style="fill: none; fill-opacity:0; stroke-width: 2; stroke: #000000" points="639.134,-29.3111 639.134,-54.3888 785.738,-54.3888 785.738,-79.4666 "/>
    <line style="fill: none; fill-opacity:0; stroke-width: 2; stroke: #000000" x1="639.134" y1="-39.3111" x2="634.134" y2="-29.3111"/>
    <line style="fill: none; fill-opacity:0; stroke-width: 2; stroke: #000000" x1="639.134" y1="-39.3111" x2="644.134" y2="-29.3111"/>
  </g>
  <g>
    <polyline style="fill: none; fill-opacity:0; stroke-width: 2; stroke: #000000" points="639.134,7.6982 639.134,29.2492 682.142,29.2492 682.142,50.8002 "/>
    <line style="fill: none; fill-opacity:0; stroke-width: 2; stroke: #000000" x1="644.134" y1="17.6982" x2="634.134" y2="17.6982"/>
  </g>
  <g>
    <polyline style="fill: none; fill-opacity:0; stroke-width: 2; stroke: #000000" points="674.752,149.07 674.752,108.245 709.842,108.245 709.842,67.4202 "/>
    <line style="fill: none; fill-opacity:0; stroke-width: 2; stroke: #000000" x1="674.752" y1="139.07" x2="669.752" y2="149.07"/>
    <line style="fill: none; fill-opacity:0; stroke-width: 2; stroke: #000000" x1="674.752" y1="139.07" x2="679.752" y2="149.07"/>
    <line style="fill: none; fill-opacity:0; stroke-width: 2; stroke: #000000" x1="669.752" y1="139.07" x2="679.752" y2="139.07"/>
  </g>
</svg>
